# xmcd
#
# Track frame offsets: 
#        150
#        13151
#        27844
#        43788
#        58274
#        71241
#        86020
#        101436
#        111940
#        128871
#        142019
#        156863
#
# Disc length: 2252 seconds
#
# Revision: 0
# Processed by: cddbd v1.5.2PL0 Copyright (c) Steve Scherf et al.
# Submitted via: ExactAudioCopy v1.0b1
#
DISCID=ad08ca0c
DTITLE=Marie Modiano - Outland
DYEAR=2008
DGENRE=Folk
TTITLE0=Searching For Pearl
TTITLE1=Drifters In The Wood
TTITLE2=Last Early Spring
TTITLE3=Spider's Touch
TTITLE4=Tightrope Walkers
TTITLE5=Martin
TTITLE6=The Hunter
TTITLE7=Carson, Flannery and Jean
TTITLE8=Butterfly Girl
TTITLE9=Shiny Sunday In Berlin
TTITLE10=Yesterday Is Back Again
TTITLE11=Angels
EXTD=
EXTT0=
EXTT1=
EXTT2=
EXTT3=
EXTT4=
EXTT5=
EXTT6=
EXTT7=
EXTT8=
EXTT9=
EXTT10=
EXTT11=
PLAYORDER=
